<?xml version="1.0" standalone="no"?>
<!DOCTYPE svg PUBLIC "-//W3C//DTD SVG 20010904//EN"
 "http://www.w3.org/TR/2001/REC-SVG-20010904/DTD/svg10.dtd">
<svg version="1.0" xmlns="http://www.w3.org/2000/svg"
 width="403.000000pt" height="403.000000pt" viewBox="0 0 403.000000 403.000000"
 preserveAspectRatio="xMidYMid meet">
<metadata>
Created by potrace 1.14, written by Peter Selinger 2001-2017
</metadata>
<g transform="translate(0.000000,403.000000) scale(0.100000,-0.100000)"
fill="#000000" stroke="none">
<path d="M1930 3843 c-35 -2 -67 -9 -71 -15 -3 -5 -12 -50 -19 -99 -14 -99
-17 -102 -90 -114 -25 -4 -74 -16 -109 -27 l-64 -20 -51 49 c-28 26 -68 64
-88 82 l-37 34 -97 -64 c-53 -35 -101 -67 -106 -70 -5 -3 7 -48 27 -99 20 -51
34 -96 33 -100 -2 -4 -43 -45 -93 -92 l-90 -86 -112 28 c-81 19 -115 24 -122
16 -5 -6 -32 -57 -60 -113 l-50 -102 80 -66 c56 -46 79 -72 76 -84 -3 -9 -16
-56 -31 -105 -14 -48 -26 -94 -26 -102 0 -18 -7 -21 -122 -55 -57 -17 -106
-34 -110 -37 -7 -8 7 -241 15 -249 3 -2 51 -12 106 -21 88 -14 102 -19 106
-37 8 -40 44 -192 50 -206 3 -9 -27 -49 -79 -105 l-85 -91 70 -104 c38 -57 75
-103 82 -101 6 2 49 17 94 34 45 16 85 29 90 27 5 -2 46 -43 92 -91 l83 -87
-27 -116 c-15 -64 -25 -118 -23 -120 9 -8 209 -105 217 -105 10 0 191 199 191
211 0 3 -19 19 -42 34 -62 40 -202 179 -258 255 -145 198 -220 427 -220 675 0
190 36 345 118 515 40 83 60 108 147 195 131 131 257 204 430 251 104 28 350
26 460 -4 316 -87 570 -343 657 -662 19 -72 23 -108 22 -235 -1 -178 -19 -257
-90 -405 -39 -80 -60 -108 -133 -181 -69 -69 -105 -95 -178 -132 -125 -62
-214 -81 -361 -75 -93 4 -134 11 -197 32 -188 64 -352 215 -432 397 -27 61
-50 158 -58 244 l-7 70 41 18 c82 36 127 136 99 220 l-15 46 82 81 82 82 49
-17 c55 -19 110 -14 155 12 32 19 29 20 157 -74 67 -50 72 -56 65 -81 -5 -15
-8 -63 -8 -107 0 -66 4 -87 24 -120 l23 -40 -68 -62 c-54 -49 -73 -61 -89 -55
-11 4 -47 7 -81 7 -51 0 -66 -4 -97 -28 -85 -64 -98 -177 -30 -258 78 -93 240
-74 292 34 22 46 27 100 12 141 -9 22 -4 31 59 90 l69 65 51 -20 c107 -41 221
-17 300 61 76 77 100 187 64 294 -22 63 -97 138 -160 160 -87 30 -194 16 -264
-34 -15 -11 -30 -20 -32 -20 -2 0 -46 31 -98 69 l-94 68 0 70 c-1 60 -5 76
-30 111 -107 155 -363 69 -343 -116 2 -26 8 -54 11 -63 5 -12 -18 -39 -84 -99
-85 -77 -92 -82 -116 -71 -57 25 -164 2 -206 -45 -58 -66 -63 -188 -11 -247
12 -12 17 -43 20 -111 12 -337 212 -649 513 -801 115 -58 240 -90 393 -101
l94 -7 143 -133 143 -133 103 70 c57 38 104 71 104 74 0 2 -20 59 -45 126 -25
67 -44 123 -43 124 2 2 41 31 87 65 l83 61 112 -25 c61 -15 121 -29 133 -32
19 -5 28 6 79 107 l56 113 -48 41 c-27 22 -63 54 -81 70 l-33 30 29 95 c17 52
32 106 35 120 5 22 18 29 121 59 l116 34 -7 121 c-3 67 -9 124 -13 128 -3 4
-49 14 -101 23 -52 9 -97 18 -101 20 -3 3 -9 26 -13 52 -3 27 -16 81 -28 121
l-21 73 81 82 c45 45 82 86 82 90 0 13 -133 207 -141 207 -5 0 -50 -16 -101
-35 -51 -19 -95 -31 -98 -27 -3 4 -43 46 -88 93 l-82 85 28 116 29 115 -116
57 c-112 56 -115 57 -130 38 -94 -117 -114 -142 -116 -142 -1 0 -33 11 -71 23
-38 13 -93 30 -121 36 l-53 13 -20 71 c-12 40 -27 90 -34 112 l-13 40 -59 1
c-32 0 -88 -1 -124 -3z m-29 -762 c32 -33 36 -58 14 -100 -41 -80 -165 -43
-165 49 0 33 53 80 90 80 22 0 41 -9 61 -29z m586 -367 c36 -23 56 -62 56
-109 0 -76 -51 -127 -128 -129 -53 -1 -92 24 -119 78 -56 114 82 230 191 160z
m-1039 -40 c53 -37 48 -120 -10 -150 -100 -52 -182 97 -83 154 28 16 67 15 93
-4z m568 -458 c73 -62 -5 -179 -89 -134 -55 29 -63 84 -18 129 36 35 70 37
107 5z"/>
<path d="M2637 3764 c-4 -4 -7 -11 -7 -15 0 -13 72 -31 110 -27 l35 3 -51 17
c-27 9 -57 20 -65 23 -8 3 -18 2 -22 -1z"/>
<path d="M3434 3067 c47 -95 51 -101 54 -71 5 50 -66 174 -99 174 -4 0 16 -46
45 -103z"/>
<path d="M1630 1466 c0 -15 77 -38 85 -26 3 5 -15 15 -40 23 -36 13 -45 13
-45 3z"/>
<path d="M2915 1325 c-22 -8 -42 -15 -44 -15 -3 0 0 -5 6 -11 8 -8 23 -4 55
15 48 29 43 32 -17 11z"/>
<path d="M1396 1049 c-48 -57 -23 -147 46 -164 12 -3 254 -4 536 -3 l514 3 24
28 c34 40 34 108 -1 142 l-24 25 -535 0 -534 0 -26 -31z"/>
<path d="M1570 783 c-30 -11 -60 -47 -66 -78 -7 -37 16 -89 45 -105 13 -6 163
-10 414 -10 l395 0 26 31 c44 52 30 125 -29 154 -28 13 -88 15 -402 14 -202 0
-375 -3 -383 -6z"/>
<path d="M1670 482 c0 -31 94 -128 155 -160 69 -37 187 -38 258 -4 52 26 122
91 150 141 l18 31 -290 0 c-160 0 -291 -3 -291 -8z"/>
</g>
</svg>
